<svg xmlns="http://www.w3.org/2000/svg" width="76" height="76" viewBox="0 0 76 76" fill="none"><path fill-rule="evenodd" clip-rule="evenodd" d="M42.1328 55.3813C42.1328 55.8984 41.7125 56.3188 41.1953 56.3188H35.6594C35.1422 56.3188 34.7219 55.8984 34.7219 55.3813C34.7219 54.8641 35.1422 54.4438 35.6594 54.4438H41.1953C41.7141 54.4438 42.1328 54.8641 42.1328 55.3813ZM75.2828 70.8813C74.7969 73.4484 72.5469 75.3125 69.9328 75.3125H42.3484C39.7344 75.3125 37.4859 73.4484 37 70.8813C36.9063 70.3875 37.0312 69.9016 37.3531 69.5141C37.6734 69.1266 38.1281 68.9141 38.6297 68.9141H40.0938C40.1172 68.6234 40.1484 68.3359 40.1891 68.0484H0.9375C0.420313 68.0484 0 67.6281 0 67.1109V51.6687C0 48.3672 2.12031 45.5 5.27812 44.5344L13.2344 42.0984L15.3297 38.9969C15.466 38.7947 15.6758 38.6537 15.9145 38.6038C16.1532 38.5539 16.4019 38.599 16.6078 38.7297L17.1172 39.0516V35.8234C14.6906 33.8594 13.0031 31.0188 12.5391 27.7891H11.8047C9.09688 27.7891 6.89375 25.5859 6.89375 22.8781C6.89375 20.4906 8.60625 18.4969 10.8672 18.0578V5.475C10.8672 3.60313 12.0203 2.02969 13.8063 1.46875C16.8156 0.521875 20.8172 0 25.0734 0C29.3297 0 33.3313 0.521875 36.3406 1.46875C38.1266 2.03125 39.2797 3.60313 39.2797 5.475V18.0594C41.5406 18.4984 43.2531 20.4922 43.2531 22.8797C43.2531 25.5875 41.05 27.7906 38.3422 27.7906H37.6078C37.1438 31.0219 35.4547 33.8609 33.0297 35.825V39.0531L33.5391 38.7313C33.9672 38.4609 34.5344 38.5781 34.8172 38.9984L36.9125 42.1L44.8688 44.5359C48.025 45.5016 50.1469 48.3703 50.1469 51.6703V55.2969C51.1906 54.875 52.2797 54.5656 53.3953 54.3719C53.2031 53.9703 53.0937 53.525 53.0937 53.0609C53.0937 51.3812 54.4594 50.0156 56.1391 50.0156C57.8188 50.0156 59.1844 51.3812 59.1844 53.0609C59.1844 53.525 59.075 53.9703 58.8828 54.3719C62.0641 54.9203 65.0109 56.4219 67.3766 58.7328C70.1844 61.475 71.8703 65.0625 72.1875 68.9172H73.6516C74.1547 68.9172 74.6078 69.1313 74.9297 69.5172C75.2516 69.9016 75.3766 70.3875 75.2828 70.8813ZM55.7062 54.1406C55.8516 54.1375 55.9969 54.1344 56.1422 54.1344C56.2875 54.1344 56.4328 54.1375 56.5781 54.1406C57.0141 53.9641 57.3125 53.5375 57.3125 53.0578C57.3125 52.4125 56.7875 51.8875 56.1422 51.8875C55.4969 51.8875 54.9719 52.4125 54.9719 53.0578C54.9719 53.5375 55.2687 53.9656 55.7062 54.1406ZM24.5078 46.6672C24.6969 46.6734 24.8844 46.6781 25.075 46.6781C29.2422 46.6781 33.1109 45.1922 35.1625 42.8516L33.7766 40.8L24.5078 46.6672ZM37.4062 17.2V13.7594H12.7422V17.2H37.4062ZM38.3453 19.8422H37.7422V25.9125H38.3453C40.0188 25.9125 41.3812 24.5516 41.3812 22.8766C41.3812 21.2016 40.0188 19.8422 38.3453 19.8422ZM12.7422 5.475V11.8844H37.4062V5.475C37.4062 4.43906 36.7672 3.56875 35.7797 3.25781C32.9469 2.36719 29.1453 1.87656 25.075 1.87656C21.0047 1.87656 17.2031 2.36719 14.3703 3.25781C13.3813 3.56719 12.7422 4.4375 12.7422 5.475ZM11.8047 25.9125H12.4078V19.8422H11.8047C10.1313 19.8422 8.76875 21.2031 8.76875 22.8781C8.76875 24.5531 10.1313 25.9125 11.8047 25.9125ZM25.075 36.7688C31.0266 36.7688 35.8672 31.9266 35.8672 25.9766V19.075H14.2813V25.9766C14.2813 31.9281 19.1234 36.7688 25.075 36.7688ZM18.9922 40.2375L25.075 44.0891L31.1578 40.2375V37.0844C29.3516 38.0781 27.2781 38.6438 25.075 38.6438C22.8719 38.6438 20.7984 38.0781 18.9922 37.0844V40.2375ZM14.9875 42.8516C16.4422 44.5141 18.8141 45.7422 21.5563 46.3172L23.3219 45.2L16.3734 40.8L14.9875 42.8516ZM1.875 66.1734H17.0953V52.6734C17.0953 50.6891 18.05 48.8875 19.5438 47.7422C17.0406 46.9672 14.9156 45.6703 13.4859 43.9828L5.82656 46.3266C3.42656 47.0609 1.875 49.1578 1.875 51.6687V66.1734ZM40.5609 66.1734C41.2922 63.375 42.7766 60.8094 44.9047 58.7297C45.9281 57.7297 47.0609 56.8828 48.275 56.1969V51.6672C48.275 49.1563 46.7234 47.0594 44.3234 46.325L36.6641 43.9813C34.2609 46.8156 29.8969 48.5531 25.075 48.5531C24.2344 48.5531 23.4078 48.4984 22.6016 48.3969C20.5234 48.7391 18.9703 50.5562 18.9703 52.6734V66.1734H40.5609ZM41.9766 68.9141H70.3047C69.6266 61.7156 63.4656 56.0109 56.1406 56.0109C48.8156 56.0109 42.6547 61.7156 41.9766 68.9141ZM73.3813 70.7891H38.9C39.3125 72.3391 40.7234 73.4375 42.3484 73.4375H69.9328C71.5594 73.4375 72.9688 72.3391 73.3813 70.7891ZM22.3734 52.5047H22.3187C21.8016 52.5047 21.3812 52.925 21.3812 53.4422C21.3812 53.9594 21.8016 54.3797 22.3187 54.3797H22.3734C22.8906 54.3797 23.3109 53.9594 23.3109 53.4422C23.3109 52.9234 22.8922 52.5047 22.3734 52.5047ZM22.3734 56.8109H22.3187C21.8016 56.8109 21.3812 57.2312 21.3812 57.7484C21.3812 58.2656 21.8016 58.6859 22.3187 58.6859H22.3734C22.8906 58.6859 23.3109 58.2656 23.3109 57.7484C23.3109 57.2312 22.8922 56.8109 22.3734 56.8109ZM22.3734 61.1188H22.3187C21.8016 61.1188 21.3812 61.5391 21.3812 62.0563C21.3812 62.5734 21.8016 62.9938 22.3187 62.9938H22.3734C22.8906 62.9938 23.3109 62.5734 23.3109 62.0563C23.3109 61.5391 22.8922 61.1188 22.3734 61.1188Z" fill="#1D4A7A"></path></svg>