<svg xmlns="http://www.w3.org/2000/svg" width="52" height="52" viewBox="0 0 52 52" fill="none"><path d="M51.9793 37.6338L49.5087 27.4323C49.4698 27.2717 49.3781 27.1288 49.2482 27.0266C49.1183 26.9244 48.9578 26.8688 48.7926 26.8688H46.825C46.8898 26.6659 46.9255 26.45 46.9255 26.2258C46.9255 25.1071 46.0525 24.1905 44.9522 24.1163C44.7731 22.3631 43.995 20.7392 42.7214 19.4927C41.7721 18.5638 40.6185 17.9154 39.3647 17.5861C39.5016 17.3005 39.5729 16.988 39.5732 16.6713C39.5732 15.4919 38.6137 14.5324 37.4345 14.5324C36.2551 14.5324 35.2956 15.4919 35.2956 16.6713C35.2956 16.9995 35.3722 17.3096 35.5051 17.5879C34.4715 17.8611 33.499 18.3514 32.6631 19.0324C31.6001 19.9001 30.7917 21.0394 30.3238 22.3294C29.9465 22.184 29.5456 22.1096 29.1413 22.1098H24.8687V18.4272C24.8687 16.2796 23.1214 14.5324 20.9739 14.5324H3.89474C1.74727 14.5324 0 16.2796 0 18.4272V25.3508C0 27.2082 1.51105 28.7193 3.36842 28.7193H5.13579V51.2632C5.13579 51.4586 5.21343 51.646 5.35161 51.7842C5.4898 51.9224 5.67721 52 5.87264 52H18.996C19.1914 52 19.3789 51.9224 19.517 51.7842C19.6552 51.646 19.7329 51.4586 19.7329 51.2632V28.1345C20.2909 28.5162 20.9515 28.7201 21.6276 28.7193H25.0487L22.8896 37.6339C22.8633 37.7423 22.862 37.8552 22.8857 37.9642C22.9094 38.0732 22.9575 38.1754 23.0265 38.263C23.0955 38.3507 23.1834 38.4215 23.2838 38.4702C23.3841 38.519 23.4942 38.5442 23.6057 38.5442H26.9223V42.9385H25.2302C25.0348 42.9385 24.8474 43.0162 24.7092 43.1543C24.571 43.2925 24.4934 43.4799 24.4934 43.6754V48.1877C24.4934 48.3831 24.571 48.5705 24.7092 48.7087C24.8474 48.8469 25.0348 48.9245 25.2302 48.9245H26.3089C26.417 50.6384 27.8452 52 29.586 52C31.327 52 32.7552 50.6384 32.8635 48.9243H42.0052C42.1136 50.6384 43.5417 52 45.2828 52C47.0238 52 48.4519 50.6384 48.5603 48.9243H49.6389C49.8343 48.9243 50.0217 48.8467 50.1599 48.7085C50.2981 48.5703 50.3757 48.3829 50.3757 48.1875V43.6752C50.3757 43.4797 50.2981 43.2923 50.1599 43.1541C50.0217 43.0159 49.8343 42.9383 49.6389 42.9383H47.9467V38.544H51.2632C51.3747 38.544 51.4848 38.5187 51.5851 38.47C51.6854 38.4212 51.7733 38.3504 51.8423 38.2628C51.9112 38.1751 51.9594 38.073 51.9831 37.964C52.0068 37.8551 52.0056 37.7422 51.9793 37.6338ZM45.4518 26.2259C45.4517 26.3964 45.3839 26.5599 45.2633 26.6804C45.1427 26.801 44.9793 26.8688 44.8088 26.8689H32.1078C32.3057 26.4675 32.4193 26.0298 32.4417 25.5828H44.8088C44.9793 25.583 45.1427 25.6508 45.2633 25.7714C45.3839 25.8919 45.4517 26.0554 45.4518 26.2259ZM36.7693 16.6713C36.7693 16.3045 37.0677 16.0061 37.4345 16.0061C37.8012 16.0061 38.0995 16.3044 38.0995 16.6713C38.0993 16.8474 38.0293 17.0163 37.9048 17.141C37.7804 17.2657 37.6116 17.3359 37.4354 17.3364H37.4332C37.2571 17.3359 37.0883 17.2656 36.9639 17.1409C36.8395 17.0163 36.7695 16.8474 36.7693 16.6713ZM37.4325 18.8101H37.4362C40.4972 18.8111 43.0776 21.1346 43.4683 24.1092H32.1767C32.0325 23.7755 31.8345 23.4678 31.5905 23.1983C32.3357 20.6337 34.7296 18.8109 37.4325 18.8101ZM8.93159 36.4914H11.6975V50.5263H6.60948V28.7193H8.19474V35.7546C8.19477 35.95 8.27242 36.1374 8.4106 36.2756C8.54878 36.4138 8.73618 36.4914 8.93159 36.4914ZM9.66843 35.0177V23.5835H14.5203V35.0177H9.66843ZM19.7329 25.3508V20.5325C19.7329 20.3371 19.6552 20.1497 19.517 20.0115C19.3789 19.8733 19.1914 19.7957 18.996 19.7957C18.8006 19.7957 18.6132 19.8733 18.475 20.0115C18.3368 20.1497 18.2592 20.3371 18.2592 20.5325V50.5263H13.1712V36.4914H15.2571C15.4525 36.4914 15.6399 36.4137 15.7781 36.2756C15.9163 36.1374 15.9939 35.9499 15.9939 35.7545V22.8466C15.9939 22.6512 15.9163 22.4638 15.7781 22.3256C15.6399 22.1874 15.4525 22.1098 15.2571 22.1098H6.60948V20.5325C6.60948 20.3371 6.53185 20.1497 6.39366 20.0115C6.25548 19.8733 6.06806 19.7957 5.87264 19.7957C5.67721 19.7957 5.4898 19.8733 5.35161 20.0115C5.21343 20.1497 5.13579 20.3371 5.13579 20.5325V22.8466C5.13579 23.0421 5.21343 23.2295 5.35161 23.3677C5.4898 23.5058 5.67721 23.5835 5.87264 23.5835H8.19474V27.2456H3.36842C2.32358 27.2456 1.47369 26.3957 1.47369 25.3508V18.4272C1.47369 17.0922 2.55969 16.0061 3.89474 16.0061H20.9739C22.309 16.0061 23.395 17.0922 23.395 18.4272V22.8466C23.395 23.0421 23.4726 23.2295 23.6108 23.3677C23.749 23.5058 23.9364 23.5835 24.1318 23.5835H29.1413C30.151 23.5835 30.9723 24.4048 30.9723 25.4145C30.9723 26.4242 30.151 27.2456 29.1413 27.2456H21.6276C20.5828 27.2456 19.7329 26.3956 19.7329 25.3508ZM28.3959 38.5441H30.1533V42.9384H28.3959V38.5441ZM31.627 42.9384V38.5441H43.2418V42.9384H31.627ZM29.586 50.5263C28.5874 50.5263 27.775 49.7139 27.775 48.7152C27.775 47.7164 28.5874 46.904 29.586 46.904C30.5847 46.904 31.3972 47.7164 31.3972 48.7152C31.3972 49.7139 30.5848 50.5263 29.586 50.5263ZM45.2828 50.5263C44.2841 50.5263 43.4716 49.7139 43.4716 48.7152C43.4716 47.7164 44.2841 46.904 45.2828 46.904C46.2814 46.904 47.0939 47.7164 47.0939 48.7152C47.0939 49.7139 46.2814 50.5263 45.2828 50.5263ZM48.9019 47.4506H48.314C47.8177 46.2654 46.646 45.4304 45.2827 45.4304C43.9194 45.4304 42.7476 46.2654 42.2513 47.4506H32.6174C32.1211 46.2654 30.9494 45.4304 29.586 45.4304C28.2228 45.4304 27.0511 46.2654 26.5548 47.4506H25.9669V44.412H48.9019V47.4506ZM46.4729 42.9384H44.7155V38.5441H46.4729V42.9384ZM24.5421 37.0704L26.5647 28.7193H29.1412C29.6928 28.7193 30.2129 28.5827 30.6706 28.3426H48.2129L50.3266 37.0704H24.5421ZM12.4343 12.2733C15.8181 12.2733 18.5711 9.52042 18.5711 6.13663C18.5711 2.75284 15.818 0 12.4343 0C9.05064 0 6.29769 2.75295 6.29769 6.13663C6.29769 9.52032 9.05054 12.2733 12.4343 12.2733ZM12.4343 1.47368C15.0056 1.47368 17.0974 3.56547 17.0974 6.13663C17.0974 8.70779 15.0056 10.7996 12.4343 10.7996C9.86317 10.7996 7.77138 8.70779 7.77138 6.13663C7.77138 3.56547 9.86317 1.47368 12.4343 1.47368Z" fill="#1D4A7A"></path></svg>