<svg xmlns="http://www.w3.org/2000/svg" width="72" height="72" viewBox="0 0 72 72" fill="none"><path d="M36 0C39.8427 5.81692e-07 42.9678 3.12506 42.9678 6.96777C42.9678 8.47047 42.4846 9.85981 41.6729 10.999L56.2227 25.5488H63.8711C68.3525 25.5489 72 29.1964 72 33.6777V63.8711C71.9999 68.3524 68.3524 71.9999 63.8711 72H8.12891C3.64759 71.9999 6.94069e-05 68.3524 0 63.8711V33.6777C0 29.1964 3.64754 25.5489 8.12891 25.5488H15.7773L30.3271 10.999C29.5154 9.85981 29.0322 8.47047 29.0322 6.96777C29.0322 3.12506 32.1573 0 36 0ZM40.0312 12.6406C38.892 13.4524 37.5027 13.9355 36 13.9355C34.4973 13.9355 33.108 13.4524 31.9688 12.6406L19.0615 25.5488H23.2256V27.8711H8.12891C4.92729 27.8712 2.32227 30.4761 2.32227 33.6777V63.8711C2.32233 67.0727 4.92733 69.6777 8.12891 69.6777H63.8711C67.0727 69.6777 69.6777 67.0727 69.6777 63.8711V33.6777C69.6777 30.4761 67.0727 27.8712 63.8711 27.8711H48.7744V25.5488H52.9385L40.0312 12.6406ZM23.2256 32.5166H8.12891C7.48798 32.5167 6.96777 33.0368 6.96777 33.6777V63.8711C6.96783 64.512 7.48802 65.0321 8.12891 65.0322H13.9355V67.3545H8.12891C6.20827 67.3544 4.64557 65.7917 4.64551 63.8711V33.6777C4.64551 31.757 6.20824 30.1935 8.12891 30.1934H23.2256V32.5166ZM37.9971 39.5967C39.9422 41.1516 41.3713 43.1805 42.1865 45.4531C44.3999 44.408 46.833 44.0056 49.2891 44.2715L51.8311 44.5557L52.1143 47.0977C52.3894 49.5757 51.9642 52.0236 50.9307 54.209C53.2358 55.0358 55.2544 56.4667 56.792 58.3887L58.3906 60.3867L56.791 62.3857C54.2664 65.5433 50.4959 67.3545 46.4512 67.3545C42.4066 67.3544 38.637 65.5433 36.1113 62.3848L36 62.2451L35.8877 62.3857C33.3631 65.5432 29.5934 67.3544 25.5488 67.3545C21.5041 67.3545 17.7338 65.5433 15.208 62.3857L13.6094 60.3867L15.208 58.3887C16.7456 56.4667 18.7632 55.0358 21.0684 54.209C20.036 52.0236 19.6096 49.5757 19.8848 47.0977L20.168 44.5557L22.71 44.2715C25.1614 44.0044 27.5991 44.408 29.8125 45.4531C30.6277 43.1807 32.056 41.1518 34.001 39.5957L36 37.9961L37.9971 39.5967ZM63.8711 30.1934C65.7919 30.1934 67.3545 31.757 67.3545 33.6777V63.8711C67.3544 65.7918 65.7918 67.3545 63.8711 67.3545H58.0645V65.0322H63.8711C64.5121 65.0322 65.0322 64.5121 65.0322 63.8711V33.6777C65.0322 33.0367 64.5121 32.5166 63.8711 32.5166H48.7744V30.1934H63.8711ZM49.7129 56.249C49.2913 56.8355 48.8367 57.4024 48.3164 57.9238C47.3003 58.9399 46.1423 59.7596 44.8975 60.3867H49.9355V62.71H39.7188C41.6196 64.2043 43.9721 65.0321 46.4512 65.0322C49.7864 65.0322 52.8953 63.5384 54.9775 60.9336L55.416 60.3867L54.9785 59.8408C53.6141 58.1364 51.7936 56.9016 49.7129 56.249ZM22.2871 56.248C20.2063 56.9007 18.3857 58.1353 17.0225 59.8398L16.584 60.3867L17.0215 60.9336C19.1048 63.5384 22.2136 65.0324 25.5488 65.0312C28.0292 65.0311 30.3815 64.2025 32.2812 62.708H22.0645V60.3857H27.1035C25.8575 59.7587 24.6997 58.9389 23.6836 57.9229C23.1622 57.4026 22.7075 56.8345 22.2871 56.248ZM49.0332 46.5801C46.8559 46.3374 44.7017 46.7511 42.7705 47.7637C42.8878 48.4767 42.9678 49.1993 42.9678 49.9355C42.9678 51.1315 42.7915 52.2973 42.4873 53.4189L45.0332 50.874L46.6758 52.5156L39.7529 59.4385C42.3507 59.2538 44.7968 58.1623 46.6758 56.2822C49.0332 53.9225 50.1748 50.6678 49.8066 47.3535L49.7295 46.6572L49.0332 46.5801ZM29.2295 47.7637C27.2983 46.7534 25.143 46.3397 22.9668 46.5801L22.2705 46.6572L22.1934 47.3535C21.8252 50.6689 22.967 53.9229 25.3242 56.2803C27.2031 58.1591 29.6533 59.2485 32.2451 59.4355L25.3242 52.5146L26.9658 50.873L29.5127 53.4189C29.2085 52.2973 29.0322 51.1315 29.0322 49.9355C29.0322 49.1993 29.1122 48.4767 29.2295 47.7637ZM35.4531 41.4082C32.8484 43.4916 31.3545 46.6003 31.3545 49.9355C31.3545 52.9932 32.622 55.851 34.8389 57.9111V47.6133H37.1611V57.9111C39.378 55.851 40.6455 52.9932 40.6455 49.9355C40.6455 46.6003 39.1516 43.4914 36.5469 41.4092L36 40.9717L35.4531 41.4082ZM29.7744 25.5488C29.7742 26.7887 29.1318 27.456 28.708 27.8984C28.3586 28.2641 28.2891 28.3609 28.2891 28.6416C28.2891 28.9377 28.3759 29.0405 28.708 29.3877C29.1319 29.8301 29.7744 30.4989 29.7744 31.7402C29.7744 32.9816 29.1319 33.6492 28.708 34.0928C28.3759 34.44 28.2891 34.5427 28.2891 34.8389H25.9668C25.9668 33.5978 26.6084 32.9288 27.0322 32.4863C27.3644 32.1391 27.4521 32.0364 27.4521 31.7402C27.4521 31.4442 27.3643 31.3423 27.0322 30.9951C26.6084 30.5527 25.9668 29.883 25.9668 28.6416C25.9669 27.4019 26.6084 26.7344 27.0322 26.292C27.3816 25.9264 27.4521 25.8295 27.4521 25.5488H29.7744ZM37.9033 25.5488C37.9032 26.7888 37.2607 27.456 36.8369 27.8984C36.4875 28.2641 36.418 28.3609 36.418 28.6416C36.418 28.9377 36.5049 29.0406 36.8369 29.3877C37.2608 29.8301 37.9033 30.4989 37.9033 31.7402C37.9033 32.9816 37.2608 33.6492 36.8369 34.0928C36.5048 34.44 36.418 34.5427 36.418 34.8389H34.0957C34.0957 33.5978 34.7373 32.9288 35.1611 32.4863C35.4933 32.1391 35.5811 32.0364 35.5811 31.7402C35.581 31.4442 35.4932 31.3423 35.1611 30.9951C34.7373 30.5527 34.0957 29.883 34.0957 28.6416C34.0958 27.402 34.7373 26.7344 35.1611 26.292C35.5105 25.9264 35.581 25.8295 35.5811 25.5488H37.9033ZM46.0322 25.5488C46.0321 26.7888 45.3896 27.456 44.9658 27.8984C44.6165 28.264 44.5469 28.3609 44.5469 28.6416C44.5469 28.9377 44.6338 29.0406 44.9658 29.3877C45.3897 29.8301 46.0322 30.4989 46.0322 31.7402C46.0322 32.9817 45.3897 33.6492 44.9658 34.0928C44.6337 34.44 44.5469 34.5428 44.5469 34.8389H42.2246C42.2246 33.5974 42.8671 32.9288 43.291 32.4863C43.6231 32.1391 43.71 32.0364 43.71 31.7402C43.7099 31.4443 43.6228 31.342 43.291 30.9951C42.8671 30.5527 42.2246 29.883 42.2246 28.6416C42.2248 27.4016 42.8672 26.7344 43.291 26.292C43.6404 25.9264 43.7099 25.8295 43.71 25.5488H46.0322ZM36 2.32227C33.4382 2.32227 31.3545 4.40597 31.3545 6.96777C31.3545 9.52957 33.4382 11.6133 36 11.6133C38.5618 11.6133 40.6455 9.52957 40.6455 6.96777C40.6455 4.40597 38.5618 2.32227 36 2.32227ZM36 3.48438C37.9208 3.48438 39.4844 5.047 39.4844 6.96777C39.4844 8.88854 37.9208 10.4512 36 10.4512C34.0793 10.4511 32.5166 8.88851 32.5166 6.96777C32.5166 5.04703 34.0793 3.48443 36 3.48438ZM36 5.80664C35.359 5.8067 34.8389 6.32678 34.8389 6.96777C34.8389 7.60876 35.359 8.12885 36 8.12891C36.641 8.12891 37.1611 7.6088 37.1611 6.96777C37.1611 6.32674 36.641 5.80664 36 5.80664Z" fill="#1D4A7A"></path></svg>